<svg xmlns="http://www.w3.org/2000/svg" width="38" height="24" viewBox="0 0 38 24">
    <g fill="none" fill-rule="evenodd">
        <path d="M0 0h38v24H0z"/>
        <rect width="37" height="23" x=".5" y=".5" fill="#005ECB" stroke="#3C3C3C" stroke-opacity=".12" rx="2"/>
        <path fill="#FFF" d="M28.025 6.66l-.734 1.784h1.471l-.737-1.784zm-8.468 1.105c.139-.072.22-.23.22-.425 0-.192-.085-.33-.224-.396-.126-.072-.32-.08-.505-.08h-1.313v.994h1.295c.207 0 .38-.003.527-.093zM2.736 6.66L2.01 8.444h1.456l-.73-1.784zm33.777 11.428h-2.06v-.96h2.051c.204 0 .346-.027.432-.11a.394.394 0 0 0 .126-.293.367.367 0 0 0-.13-.296c-.078-.068-.19-.1-.376-.1-1.001-.033-2.25.032-2.25-1.384 0-.65.41-1.333 1.53-1.333h2.123v-.89h-1.973c-.595 0-1.028.143-1.334.365v-.365h-2.919c-.466 0-1.014.116-1.273.365v-.365h-5.211v.365c-.415-.3-1.115-.365-1.438-.365h-3.438v.365c-.328-.318-1.057-.365-1.502-.365h-3.847l-.88.956-.825-.956H7.572v6.245h5.639l.907-.971.854.971 3.476.003V17.5h.342c.46.008 1.005-.01 1.485-.219v1.686h2.866v-1.628h.139c.176 0 .194.007.194.184v1.443h8.708c.553 0 1.131-.141 1.451-.4v.4h2.763c.575 0 1.136-.08 1.563-.287v-1.164c-.259.38-.764.573-1.446.573zm-17.678-1.475h-1.33v1.501h-2.072l-1.313-1.481-1.364 1.481H8.533V13.64h4.288l1.311 1.467 1.356-1.467h3.407c.846 0 1.796.235 1.796 1.474 0 1.243-.924 1.5-1.856 1.5zm6.397-.203c.15.219.172.422.176.817v.887h-1.07v-.56c0-.269.026-.668-.172-.876-.156-.16-.393-.198-.783-.198h-1.139v1.634h-1.07V13.64h2.46c.54 0 .933.024 1.283.21.337.205.548.484.548.995 0 .714-.475 1.078-.755 1.19.237.088.43.246.522.376zm4.404-1.846h-2.497v.814h2.436v.913h-2.436v.89l2.497.005v.928h-3.559V13.64h3.559v.925zm2.74 3.55h-2.077v-.96h2.068c.202 0 .345-.026.435-.11a.398.398 0 0 0 .126-.292.385.385 0 0 0-.13-.296c-.081-.069-.194-.1-.38-.1-.996-.034-2.245.031-2.245-1.385 0-.649.407-1.332 1.524-1.332h2.138v.952h-1.956c-.194 0-.32.008-.427.081-.117.073-.16.18-.16.322 0 .169.099.284.233.333.112.04.233.051.415.051l.574.016c.578.014.976.114 1.217.36.207.215.319.487.319.948 0 .963-.6 1.412-1.675 1.412zm-8.27-3.478c-.128-.076-.318-.08-.508-.08h-1.313v1.005h1.296c.207 0 .383-.008.526-.093a.483.483 0 0 0 .22-.43c0-.19-.082-.33-.22-.402zm11.912-.08c-.194 0-.323.007-.431.08-.113.073-.156.18-.156.322 0 .17.095.284.233.334.113.039.234.05.411.05l.578.016c.583.014.972.115 1.21.36.043.034.069.073.099.111v-1.273h-1.944zm-17.146 0h-1.39v1.14h1.378c.41 0 .664-.205.664-.592 0-.391-.267-.549-.652-.549zm-9.277 0v.813h2.34v.913h-2.34v.89h2.62l1.219-1.312-1.167-1.305H9.595zm6.844 3.13v-3.589l-1.637 1.765 1.637 1.823zm-6.755-7.187v.772h8.907l-.004-1.632h.173c.12.004.155.016.155.215v1.417h4.607v-.38c.372.2.95.38 1.71.38h1.938l.415-.994h.92l.405.994h3.735v-.944l.565.944h2.993V5.03H33.24v.737l-.415-.737h-3.039v.737l-.38-.737H25.3c-.687 0-1.291.096-1.779.364V5.03H20.69v.364c-.31-.276-.734-.364-1.204-.364H9.135l-.694 1.612-.713-1.612h-3.26v.737L4.11 5.03H1.33L.039 7.997v2.374l1.909-4.475h1.584l1.813 4.237V5.896h1.74L8.48 8.932l1.282-3.036h1.775v4.475h-1.093l-.004-3.505-1.546 3.505h-.936l-1.55-3.508v3.508H4.24l-.41-.998H1.61l-.414.998H.04v.9H1.86l.41-.994h.92l.41.994h3.584v-.76l.32.763h1.86l.32-.775zM23.72 6.418c.344-.357.884-.522 1.619-.522h1.032v.959h-1.01c-.39 0-.61.058-.82.265-.183.188-.307.544-.307 1.013 0 .48.095.825.293 1.051.164.177.462.23.743.23h.479l1.502-3.518h1.598l1.804 4.232V5.896h1.624l1.874 3.116V5.896h1.092v4.475h-1.511l-2.02-3.359v3.359H29.54l-.415-.998h-2.214l-.403.998H25.26c-.518 0-1.174-.115-1.545-.495-.375-.38-.57-.895-.57-1.708 0-.664.116-1.27.575-1.75zm-2.193-.522h1.088v4.475h-1.088V5.896zm-4.904 0h2.452c.544 0 .946.015 1.29.214.338.2.54.492.54.991 0 .714-.475 1.082-.751 1.193.233.089.432.246.527.377.15.222.177.42.177.82v.88h-1.075l-.005-.565c0-.269.026-.656-.168-.871-.156-.158-.393-.192-.777-.192H17.69v1.628h-1.066V5.896zm-4.298 0h3.561v.932h-2.495v.806h2.435v.918h-2.435v.893h2.495v.926h-3.561V5.896z"/>
    </g>
</svg>