<svg xmlns="http://www.w3.org/2000/svg" width="38" height="24" viewBox="0 0 38 24">
    <g fill="none" fill-rule="evenodd">
        <path d="M0 0h38v24H0z"/>
        <rect width="37" height="23" x=".5" y=".5" fill="#FFF" stroke="#000" stroke-opacity=".2" rx="2"/>
        <path fill="#FF5F00" d="M15.992 6.427h6.006v10.516h-6.006z"/>
        <path fill="#EB001B" d="M16.485 11.689c0-2.137 1.03-4.032 2.612-5.258A6.936 6.936 0 0 0 14.864 5C11.07 5 8 7.991 8 11.689c0 3.697 3.07 6.688 6.864 6.688 1.602 0 3.07-.539 4.233-1.43a6.618 6.618 0 0 1-2.612-5.258z"/>
        <path fill="#F79E1B" d="M29.995 11.689c0 3.697-3.07 6.688-6.864 6.688a6.936 6.936 0 0 1-4.233-1.43c1.602-1.227 2.612-3.122 2.612-5.258 0-2.137-1.03-4.032-2.612-5.258A6.936 6.936 0 0 1 23.131 5c3.794 0 6.864 3.01 6.864 6.689z"/>
    </g>
</svg>