<svg xmlns="http://www.w3.org/2000/svg" viewBox="0 0 435.2 147.9"><defs><style>.cls-1{fill:#fff;}</style></defs><g id="Layer_2" data-name="Layer 2"><g id="Layer_1-2" data-name="Layer 1"><path class="cls-1" d="M288.8,114.3c-.7,2.1-2.7,4.2-4.7,4.2h-3.7l2.9-8.9h3.4C289.6,109.6,289.6,111.7,288.8,114.3Z"/><path class="cls-1" d="M322.7,108.9c-3.7,0-5.3,3.5-8,11.5s-3.3,11.5.4,11.5,5.4-3.5,8-11.5S326.4,108.9,322.7,108.9Zm0,0c-3.7,0-5.3,3.5-8,11.5s-3.3,11.5.4,11.5,5.4-3.5,8-11.5S326.4,108.9,322.7,108.9Zm0,0c-3.7,0-5.3,3.5-8,11.5s-3.3,11.5.4,11.5,5.4-3.5,8-11.5S326.4,108.9,322.7,108.9Zm0,0c-3.7,0-5.3,3.5-8,11.5s-3.3,11.5.4,11.5,5.4-3.5,8-11.5S326.4,108.9,322.7,108.9ZM424.5,93.2H270.07c-7.5,10.17-13.62,18.51-13.62,18.51-3.78,4.69-5.34,6.25-7.55,6.25h-.26a4.46,4.46,0,0,1-4-5.47c.52-2.47,3-5.59,4.56-7.54l9.62-11.75H241.2a8.89,8.89,0,0,0-8,5.8l-14,43.1c-1,3.2.9,5.8,4.2,5.8H406.6a8.89,8.89,0,0,0,8-5.8L428.7,99C429.7,95.8,427.8,93.2,424.5,93.2Zm-129,20.9c-1.2,3.6-4.1,9.2-11.8,9.2h-4.9L274.6,136H268l10.3-31.3h11.9C296.2,104.7,297.4,108.3,295.5,114.1Zm34.3,6.3c-2.7,8.2-5.3,16.2-16.2,16.2s-8.2-8-5.6-16.2,5.3-16.2,16.2-16.2S332.5,112.1,329.8,120.4Zm38.5-6.9h-6.4c.8-2.3,1.2-4.7-1.5-4.7a4.59,4.59,0,0,0-4.5,3.3c-1.9,5.9,11.5,5.4,8.3,15.2-2.8,8.3-9.1,9.2-14.1,9.2-8.2,0-8.1-4.8-6-10.2h6.6c-1,3-1.7,5.5,2,5.5a4.67,4.67,0,0,0,4.5-3.6c1.8-5.6-11.3-6-8.3-15.3,1.6-4.9,5.2-8.8,13.3-8.8C368.6,104.1,370.9,107,368.3,113.5Zm36-3.6H397L388.5,136h-6.6l8.5-26.1h-7.3l1.7-5.2H406Zm-81.6-1c-3.7,0-5.3,3.5-8,11.5s-3.3,11.5.4,11.5,5.4-3.5,8-11.5S326.4,108.9,322.7,108.9Zm0,0c-3.7,0-5.3,3.5-8,11.5s-3.3,11.5.4,11.5,5.4-3.5,8-11.5S326.4,108.9,322.7,108.9Zm0,0c-3.7,0-5.3,3.5-8,11.5s-3.3,11.5.4,11.5,5.4-3.5,8-11.5S326.4,108.9,322.7,108.9Z"/><path class="cls-1" d="M149,26.8c-1.4,0-3.5,1.5-4.4,2.2s-3.2,2.2-3.2,4.7c0,1.9.6,2.5,1.4,2.6s2.1-1.1,3.5-2.1c4.1-3,5.4-3.4,5.4-4.7A2.75,2.75,0,0,0,149,26.8Z"/><path class="cls-1" d="M434.1,71.6a5.34,5.34,0,0,0-3.3-.2s-.47.08-7.2,1.9c0,0-16,4.5-26.7,4.5-1.3,0-2.6-.1-3.7-.2-6.3-.7-8.8-3.2-8.9-6.6.8-.4,1.6-.7,2.4-1.1C397.4,65.1,407.3,59,408,53v-.6c0-2.5-2.3-5.2-6.4-5.6a4.87,4.87,0,0,0-1.2-.1c-5,0-20.2,9-21.6,21.3a6.6,6.6,0,0,0-.1,1.4c-8.4,3.6-12.8,4.3-14.6,4.3H364a2,2,0,0,1-1.8-1.8v-.4c.2-1.9,2.1-3.7,5-6.2,4.3-3.8,7.6-5.8,7.9-8.3v-.3c0-2.5-1.8-3.3-3.4-3.8s-3.1-1-3-2.7v-.1c.1-.9,1.1-2,1.3-3.2v-.2a2.71,2.71,0,0,0-2.4-2.7h-.4c-2.1,0-4.4,1.8-4.8,5.5v.2c-4.3,3.2-7.9,5.6-15.7,10.5a5.08,5.08,0,0,0,.8-2.2v-.3a2.5,2.5,0,0,0-1-2.1c-.5-.4-.8-.6-.8-1v-.2a.78.78,0,0,1,.3-.7c.1-.2.4-.4.4-.8v-.2a2.72,2.72,0,0,0-2.6-2.1h-.5c-9.4.1-37.3,16.4-39,17.2a2,2,0,0,1-.8.3h-.1l.5-.5c2.7-2.6,6-6.3,6.4-10.3v-.9c0-2.6-1.4-4.2-4.1-4.5h-1.1a17.11,17.11,0,0,0-6.6,1.8,33.53,33.53,0,0,1-4.1,1.8h-.1c-.1,0-.2,0-.2-.2v-.1a2.26,2.26,0,0,1,.5-1c3.9-5.9,6.2-8.9,6.4-10.1V44a2.3,2.3,0,0,0-2.2-2.4h-.5c-1.6,0-5.1,2.8-9.9,6.7s-10.8,9-17.1,13.7-12,8.8-13.5,8.8h-.2c-.4-.1-.7-.3-.7-1v-.3c.2-1.4,1.6-3.5,3.1-5.5s3-3.8,3.1-4.8v-.1a2.56,2.56,0,0,0-1.9-2.1h-.1a8.13,8.13,0,0,0-3.9,2.2c-6.5,6.2-16.3,13-19.9,13h-.2c-.6-.1-1-.4-1-1.3v-.4c.3-2.7,3.8-6.9,8.6-10.2s10.6-5.7,15.4-5.2a19.44,19.44,0,0,0,3.6.2,2.89,2.89,0,0,0,.7-1.1v-.3c-.1-1.1-1.5-2.6-5.3-3a13.42,13.42,0,0,0-2.1-.1c-10.9,0-18.4,7.4-26.7,13.1-2.8,1.9-7.9,5-15.9,9.9,3.3-6.3,5.5-11.6,5.8-14.5v-.7s-.4-2.7-1.6-2.9a3.09,3.09,0,0,0-2.1.9,99.63,99.63,0,0,1-7.8,8.4c-8.2,7.2-13,9-14.2,9h-.2c-.6,0-.9-.5-.9-1.1v-.3c.3-2.9,5.3-8.1,11.4-12.2,7-4.7,13.3-6.6,18.7-6.2.9.1,1.6-1,1.6-1q.15-.75-.9-1.5a10,10,0,0,0-4.5-1.4,13.4,13.4,0,0,0-2-.1c-7.6,0-12.6,3.1-23.3,8.9-2.4,1.3-7.2,4.3-11.7,7s-8.9,5-10,5h-.2c-.5-.1-.6-.2-.6-.7v-.2c.1-1.3,1.6-3.4,3.1-5.5s3-4.3,3.2-5.8v-.3a3.76,3.76,0,0,0-3.5-3.5h-.6c-1.9.1-5.4,2.1-9,4.2-1.7,1-3.7,2.3-5.4,3.3-.9.5-1.6,1-2.2,1.3a5.74,5.74,0,0,1-.7.4c-.1,0-.1.1-.2.1h-.2c-.2-.1-.2-.1-.2-.3V64c0-.4.5-1,1.2-1.8,4.7-5.6,6.4-8,6.7-10.5v-.8a2.67,2.67,0,0,0-2.7-2.7h-.8c-3.9.1-11.6,4.2-19.4,8.9-3.4,2.1-7.5,4.9-11.1,7.1s-6.5,3.9-7.2,3.9h-.1c-.2-.1-.3-.1-.3-.4s.9-1.5,2.3-2.9c0,0,12.1-10.8,12.6-14.7v-.3a2.91,2.91,0,0,0-2.6-2.8h-.3c-2.4,0-12.7,3.9-24.2,8.6-4.5,1.9-9.2,3.9-13.6,5.8a120.86,120.86,0,0,1-1-13.1,16.2,16.2,0,0,1,.1-2.2,31.48,31.48,0,0,1,.9-4.2c11-7,21.3-13.5,29.7-19.2,12.1-8.3,20.2-14.6,20.7-18.2V4.2c0-2.1-1.4-3.8-4.2-4.1a3.08,3.08,0,0,0-1-.1C131.1.1,96.1,19.7,89.3,42.1Q77,49.75,62,59.2a385.22,385.22,0,0,0-39,28C10.6,97.6.8,107.8,0,114.9v.9a6.27,6.27,0,0,0,5.8,6.6h.9a9.6,9.6,0,0,0,7.1-3.4,5.17,5.17,0,0,0,.6-1.3v-.1a.77.77,0,0,0-.7-.8,2,2,0,0,0-1.3.5A5.4,5.4,0,0,1,9,118.7H8.8a1.8,1.8,0,0,1-1.5-1.9v-.7c.8-7,12.8-19.1,28-31.5A518,518,0,0,1,81.8,51.2c2.2-1.4,4.3-2.7,6.5-4.1-.1.8.5,14.1.9,17.5-3.8,1.7-7.1,3.3-9.6,4.6-6.7,3.4-17.7,9-27.3,15.1S34.7,96.9,34.1,102.2v.6c0,5,5.8,8.4,12.6,9.2,0,0,1.8.2,2.8.2,19.7-.1,45-14.3,47.5-36.7.1-1.2.1-8.6,0-10.5,12.4-5.7,27.2-12.1,30-12.1,0,0,.7.1.7.7a22.75,22.75,0,0,1-2.7,3.3s-14.5,13.2-15,17.7V75a3.9,3.9,0,0,0,3,3.7h.2c3.6-.1,9.6-6.2,30.7-19.6,6.5-4.1,9.5-5.6,10.9-5.6h.2c.4.1.7.2.7.7v.2c-.1,1.8-3.7,5.8-7.3,10s-7.2,8.6-7.5,11.4v.4a2.45,2.45,0,0,0,2,2.4h.2c1-.1,2.6-1.3,4.9-3.2s5.4-4.5,9-7.3c6.6-5.1,11.2-7.7,12.7-7.7h.1c.3.1.4.2.4.4v.1c-.1,1.2-2,3.8-3.9,6.5s-3.9,5.7-4.2,8v.5a2.25,2.25,0,0,0,2,2.4h.3c3.5,0,11.2-4.8,25.2-13,.4-.3.7,0,.5.3-1.4,1.9-3.3,4.3-3.6,7.4,0,0-.1.7-.1,1a4.34,4.34,0,0,0,4,4.7h.6c4.9,0,17.7-9.8,17.9-9.8s.1,0,.1.1a8.21,8.21,0,0,1-.3,1.8A61.92,61.92,0,0,1,204,80c-4.3,2.6-9,5.6-14.4,8.9-22.2,13.9-47.2,31.9-48.6,43.7v.9c0,3.2,2.2,4.5,5.4,4.7h.1a3.4,3.4,0,0,0,1,.1c10.7-.1,32.1-16.3,47.6-34.7a184.28,184.28,0,0,0,16.8-24.3c6.7-4.3,12.2-7.6,16-9.7l.8-.2a17.48,17.48,0,0,0-.3,2.4c0,2.9,1.6,5.1,4.5,5.4h.8c3.7,0,9.1-3,15.6-7.2a.91.91,0,0,1,.5-.3.6.6,0,0,1-.1.4,6.64,6.64,0,0,0-.6,2v.6a3.89,3.89,0,0,0,3.5,3.9h.6c5.4-.1,10.9-4.3,21.7-12.7l10.4-8.1a27.55,27.55,0,0,1,5.5-3.6s1.6-.7.3,1.3L258.58,93.2,249,104.9c-1.2,1.5-3.1,3.9-3.5,5.8a3.43,3.43,0,0,0,3.1,4.2h.2c1.7,0,2.9-1.2,5.8-4.8,0,0,5.82-7.93,12.44-16.9C275.26,82,284.7,69.26,285.7,68.1c8.1-10.2,15-12.4,17-12.4h.3c.7.1,1,.5,1,1.3v.3c-.4,4-9.4,17-18.8,16a1.57,1.57,0,0,0-1.2.1,1.05,1.05,0,0,0-.5.9v.3a3.36,3.36,0,0,0,3.2,3.5h.5c7.6-.1,21.9-9.7,35.5-16.1a3.37,3.37,0,0,1,1.2-.4.1.1,0,0,1,.1.1,10.06,10.06,0,0,1-1.5,1.7c-1.7,1.8-3.7,4.3-4.1,7.5v1a5.17,5.17,0,0,0,4.8,5.5h.8c6.9,0,19.6-11,24.1-14.1,8-5.5,14.5-9.4,16.3-9.6a3.87,3.87,0,0,0,1.8,1.4,1.45,1.45,0,0,1,1,1.5v.1c-.1,1.3-3,3.4-6,6s-6.1,5.7-6.5,9.4v.8c0,3.1,2.1,4.6,4.8,4.9a3.08,3.08,0,0,0,1,.1c3.1,0,10.6-1.9,18.8-5,1.6,4.5,6.8,7.4,14.6,8.2a43.33,43.33,0,0,0,5.3.3,99.43,99.43,0,0,0,29.5-4.6s6.2-1.8,6.5-3.8v-.1C435.2,72.3,434.7,71.9,434.1,71.6ZM391.5,57.5c3.7-3.5,7.9-5.7,9.5-5.7h.3a.77.77,0,0,1,.7.8V53c-.3,3.1-5.4,8-17.4,13.9A25.21,25.21,0,0,1,391.5,57.5ZM114.9,18.9c9.1-7.2,18.6-11.8,20.9-11.8h.2c.5,0,.8.3.8,1v.2c-.1,1.2-1.9,3.3-5.4,6.1-6.1,4.9-17.1,12-32,21.4C103,29.5,108.9,23.6,114.9,18.9Zm-25.6,57c-2.2,20.5-23.5,33-41.8,33a16.22,16.22,0,0,1-2.3-.1c-3.5-.4-4.9-1.8-4.9-4.1v-.5c.6-5.3,10.9-13.4,22.2-20.5a296.47,296.47,0,0,1,26.9-15c.1,1,.1,2.2.1,3.5S89.4,74.7,89.3,75.9ZM189.8,99.7a167.54,167.54,0,0,1-25.6,25.7c-7.7,6.2-13.8,9.6-15.7,9.6h-.2c-.7-.1-1.2-.4-1.2-1.5v-.4c.6-6,17.4-22.3,36.2-35.3,5.8-4,11.3-7.7,16.3-11.1C197.1,90.3,193.9,94.6,189.8,99.7Zm152.7-41c-.2,2.2-3.2,6-6.8,9.1s-7.8,5.6-10.3,5.6h-.1a1.19,1.19,0,0,1-1-1.2V72c.2-2.1,3.4-6,7-9.2s7.8-5.9,9.8-5.9a.1.1,0,0,1,.1.1,1.34,1.34,0,0,1,1.3,1.4Z"/></g></g></svg>