<svg width="38" height="24" viewBox="0 0 38 24" fill="none" xmlns="http://www.w3.org/2000/svg">
<g clip-path="url(#clip0)">
<path d="M35.5 0.5H2.5C1.39543 0.5 0.5 1.39543 0.5 2.5V21.5C0.5 22.6046 1.39543 23.5 2.5 23.5H35.5C36.6046 23.5 37.5 22.6046 37.5 21.5V2.5C37.5 1.39543 36.6046 0.5 35.5 0.5Z" fill="white" stroke="black" stroke-opacity="0.2"/>
<path d="M15.0791 8.15869L11.4319 16.8632H9.05161L7.25702 9.91714C7.14736 9.48882 7.05318 9.33271 6.72162 9.15209C6.17718 8.85923 5.28698 8.58314 4.5 8.41155L4.55419 8.15353H8.3846C8.6341 8.15455 8.87505 8.24447 9.06422 8.40715C9.25338 8.56983 9.37836 8.79461 9.41671 9.04114L10.365 14.0791L12.7156 8.15869H15.0791ZM24.4068 14.0224C24.4159 11.7246 21.2292 11.5982 21.2511 10.5712C21.2576 10.259 21.5556 9.92618 22.2058 9.84232C22.9673 9.76869 23.7345 9.90243 24.4262 10.2294L24.8222 8.38704C24.149 8.13399 23.436 8.00293 22.7167 8C20.4977 8 18.925 9.18306 18.9108 10.8783C18.8966 12.1284 20.0294 12.8303 20.8847 13.247C21.762 13.6727 22.0575 13.9462 22.0536 14.3281C22.0536 14.9126 21.3531 15.1693 20.7067 15.1796C19.574 15.1977 18.9173 14.8739 18.3935 14.63L17.9819 16.5368C18.5083 16.7794 19.4798 16.9897 20.4874 17C22.8522 17 24.4004 15.8311 24.4081 14.0224H24.4068ZM30.2847 16.8607H32.367L30.5492 8.15869H28.6256C28.4204 8.15781 28.2197 8.21809 28.0489 8.33184C27.8782 8.44559 27.7452 8.60764 27.667 8.79731L24.2907 16.8632H26.6542L27.1239 15.5641H30.0125L30.2847 16.8607ZM27.7715 13.7798L28.9571 10.5106L29.6396 13.7798H27.7715ZM18.3045 8.15869L16.4364 16.8632H14.1838L16.0467 8.15869H18.3045Z" fill="#1A1F71"/>
</g>
<defs>
<clipPath id="clip0">
<rect width="38" height="24" fill="white"/>
</clipPath>
</defs>
</svg>